<?xml version="1.0" standalone="no"?>
<!DOCTYPE svg PUBLIC "-//W3C//DTD SVG 20010904//EN"
 "http://www.w3.org/TR/2001/REC-SVG-20010904/DTD/svg10.dtd">
<svg version="1.0" xmlns="http://www.w3.org/2000/svg"
 width="555.000000pt" height="680.000000pt" viewBox="0 0 555.000000 680.000000"
 preserveAspectRatio="xMidYMid meet">

<g transform="translate(0.000000,680.000000) scale(0.100000,-0.100000)"
fill="#000000" stroke="none">
<path d="M916 6789 c-348 -53 -642 -262 -799 -567 -55 -107 -92 -223 -107
-333 -8 -57 -10 -313 -8 -794 l4 -710 26 -97 c102 -374 384 -654 766 -761 72
-20 104 -21 498 -25 384 -3 428 -2 515 16 398 81 708 374 817 771 l27 96 0
760 0 760 -28 100 c-33 121 -108 277 -175 365 -118 156 -296 291 -472 357
-170 64 -186 65 -615 68 -214 2 -417 -1 -449 -6z m636 -902 c118 -58 191 -154
218 -284 7 -34 10 -202 8 -490 -3 -388 -6 -443 -21 -483 -44 -113 -142 -209
-250 -247 -40 -14 -82 -18 -182 -18 -112 1 -138 4 -185 24 -77 32 -142 82
-183 143 -73 106 -71 94 -75 578 -2 302 0 453 8 495 29 148 123 254 275 307
40 15 76 18 181 16 128 -3 131 -4 206 -41z"/>
<path d="M3005 6753 c-44 -23 -74 -53 -96 -96 -19 -36 -19 -69 -17 -1245 l3
-1207 23 -70 c27 -86 81 -200 122 -260 90 -131 258 -266 396 -318 147 -56 156
-57 727 -57 l527 0 0 445 0 444 -407 3 c-405 3 -408 3 -440 26 -17 12 -41 42
-52 65 -21 43 -21 55 -21 685 0 449 3 648 11 665 6 14 21 30 33 36 15 8 249
12 806 14 l785 2 3 443 2 442 -1187 0 c-1063 -1 -1191 -2 -1218 -17z"/>
<path d="M655 3265 c-323 -71 -571 -320 -636 -641 -19 -90 -20 -127 -16 -424
3 -299 5 -331 26 -399 83 -278 281 -481 556 -572 68 -23 81 -23 580 -29 459
-4 513 -7 542 -22 51 -28 77 -74 78 -134 0 -57 -18 -90 -69 -128 -27 -21 -37
-21 -872 -24 l-844 -2 0 -445 0 -446 998 3 997 3 75 23 c233 72 426 238 524
454 64 140 69 171 73 512 3 207 1 336 -7 390 -40 274 -221 515 -472 630 -150
69 -150 69 -708 75 -502 6 -505 6 -536 28 -32 23 -64 85 -64 125 0 42 39 104
79 126 l39 22 836 0 836 0 0 445 0 445 -977 -1 c-771 0 -991 -3 -1038 -14z"/>
<path d="M2890 2166 c0 -699 4 -1152 10 -1215 46 -442 354 -798 795 -918 l100
-28 430 0 430 0 100 28 c348 94 630 353 741 681 55 161 54 134 54 1397 l0
1169 -442 0 -443 0 0 -1052 0 -1053 -24 -60 c-33 -83 -133 -183 -216 -216 -54
-21 -75 -24 -205 -24 -145 0 -146 0 -213 33 -83 41 -153 109 -191 187 -24 50
-30 79 -37 170 -4 60 -8 539 -8 1063 l-1 952 -440 0 -440 0 0 -1114z"/>
</g>
</svg>
